<?xml version="1.0" encoding="utf-8"?>
<!-- Generator: Adobe Illustrator 13.0.0, SVG Export Plug-In . SVG Version: 6.00 Build 14948)  -->
<!DOCTYPE svg PUBLIC "-//W3C//DTD SVG 1.1//EN" "http://www.w3.org/Graphics/SVG/1.1/DTD/svg11.dtd">
<svg version="1.1" id="Layer_1" xmlns="http://www.w3.org/2000/svg" xmlns:xlink="http://www.w3.org/1999/xlink" x="0px" y="0px"
	 width="960.192px" height="325.944px" viewBox="0 0 960.192 325.944" enable-background="new 0 0 960.192 325.944"
	 xml:space="preserve">
<rect fill-rule="evenodd" clip-rule="evenodd" fill="#E42525" width="960.192" height="325.944"/>
<path fill-rule="evenodd" clip-rule="evenodd" fill="#050509" d="M162.291,131.471c-0.066-0.731-0.099-1.498-0.099-2.3
	c0-3.354,0.551-6.938,1.651-10.754l0.032-0.111l0.027-0.113c1.855-7.823,5.629-16.005,11.323-24.546l0.039-0.059l0.038-0.06
	c4.51-7.216,8.739-11.781,12.687-13.695c0.284,2.424,0.426,4.857,0.426,7.301c0,5.368-0.682,10.727-2.046,16.076
	c-1.996,7.825-4.936,14.17-8.821,19.034c-4.913,6.152-9.965,9.228-15.158,9.228C162.357,131.472,162.324,131.471,162.291,131.471z
	 M550.488,263.52c0.171-1.552,0.473-3.161,0.904-4.827c1.445-5.582,4.255-11.666,8.429-18.253c1.757-2.773,3.433-4.999,5.026-6.679
	c-0.081,3.523-0.545,6.956-1.392,10.298c-1.407,5.554-3.565,10.184-6.477,13.889C554.855,260.65,552.692,262.507,550.488,263.52z
	 M652.467,131.471c-0.066-0.731-0.099-1.498-0.099-2.3c0-2.847,0.564-6.48,1.691-10.899c2.109-8.27,5.913-16.469,11.411-24.598
	l0.057-0.083l0.053-0.086c4.431-7.179,8.626-11.73,12.586-13.653c0.276,2.373,0.413,4.764,0.413,7.173
	c0,5.364-0.68,10.767-2.04,16.207c-1.961,7.846-4.871,14.183-8.727,19.012c-4.913,6.152-9.995,9.228-15.246,9.228
	C652.533,131.472,652.5,131.471,652.467,131.471z M756.362,131.471c-0.065-0.732-0.098-1.499-0.098-2.3
	c0-3.076,0.534-6.709,1.603-10.899c2.06-8.076,5.87-16.284,11.43-24.625l0.047-0.07l0.044-0.072
	c4.459-7.224,8.679-11.787,12.661-13.689c0.279,2.446,0.418,4.894,0.418,7.343c0,5.402-0.675,10.753-2.026,16.051
	c-1.98,7.765-4.925,14.115-8.833,19.05c-4.864,6.141-9.941,9.212-15.234,9.212C756.37,131.472,756.366,131.472,756.362,131.471z
	 M198.147,170.393l10.841,10.841l4.631-0.621l-27.904,4.546l-0.782,3.054c-1.123,4.387-2.297,8.801-3.521,13.243l1.061-14.376
	l-6.673-6.672c8.919-3.441,17.531-9.739,25.839-18.892c-0.163,0.416-0.326,0.832-0.49,1.247L198.147,170.393z M252.663,177.968
	l4.417,4.417c-3.103,0.774-6.346,1.716-9.731,2.825l-0.138,0.046l-8.123-8.124l13.875-1.86L252.663,177.968z M294.096,183.978
	l3.15-11.667l5.232,5.232l34.231-6.082l8.416,8.416l-32.283,6.039l-2.341,13.524c-0.238-0.26-0.482-0.518-0.729-0.774
	c-0.093-0.096-0.186-0.191-0.28-0.285l-10.841-10.841C297.285,186.174,295.767,184.987,294.096,183.978z M111.156,117.165
	l-8.15-8.15l-5.974,8.012c-6.127,8.22-11.576,12.363-16.346,12.429c-0.094-0.832-0.141-1.711-0.142-2.638l0.004-0.483
	c0.045-2.904,0.42-6.074,1.128-9.509c1.574-7.647,5.103-15.884,10.587-24.711c6.133-9.872,11.631-14.808,16.495-14.808
	c2.349,0,4.571,1.049,6.667,3.145l2.352,2.351c-0.878,2.739-1.665,5.508-2.362,8.305
	C112.946,100.378,111.526,109.064,111.156,117.165z M103.747,254.304c-1.491-3.067-2.65-5.497-3.475-7.291
	c1.965-1.676,3.804-3.358,5.517-5.045L103.747,254.304z M174.011,226.584l-2.603-2.604c1.144-0.111,2.314-0.219,3.509-0.326
	C174.617,224.629,174.316,225.606,174.011,226.584z M615.32,163.473l10.841,10.841c1.793,1.793,3.73,3.323,5.811,4.59
	c-8.393,0.821-18.356,2.914-29.889,6.277l-2.884,0.842l-1.693,9.745c-0.901-1.255-1.866-2.397-2.895-3.426l-10.841-10.841
	c-4.684-4.683-10.687-7.025-18.009-7.025c-1.528,0-3.042,0.098-4.545,0.295c4.635-1.562,9.03-3.509,13.187-5.839
	c10.138-5.686,18.934-12.5,26.388-20.442c1.301-1.387,2.515-2.776,3.643-4.168c0.315,1.065,0.653,2.12,1.014,3.166l0.031,0.091
	l0.035,0.09C608.077,154.23,611.345,159.498,615.32,163.473z M719.141,163.384l10.841,10.841c4.353,4.352,9.536,7.163,15.55,8.431
	l-11.734,1.714l-2.495,14.998c-0.213-0.233-0.429-0.463-0.649-0.692c-0.115-0.12-0.231-0.239-0.348-0.356l-10.841-10.841
	c-5.191-5.19-12.6-7.786-22.228-7.786c-8.106,0-17.746,1.832-28.922,5.497l-2.797,0.916l-0.7,4.414l-6.015-6.015
	c-0.597-0.597-1.254-1.156-1.971-1.676c14.278-2.384,27.808-11.764,40.589-28.14l0.026-0.033l0.025-0.034
	c3.564-4.734,6.805-9.555,9.72-14.463c0.562,2.452,1.24,4.866,2.032,7.242l0.042,0.127l0.05,0.125
	C711.902,154.176,715.177,159.42,719.141,163.384z M654.096,253.224c-1.22-2.526-2.204-4.602-2.952-6.228
	c1.696-1.447,3.298-2.897,4.806-4.351L654.096,253.224z M852.813,264.888c-0.497-1.003-0.976-1.971-1.437-2.905l1.906,1.905
	C853.127,264.217,852.971,264.55,852.813,264.888z M604.518,95.616l-2.118-2.118c1.258-1.281,2.46-2.563,3.604-3.848
	c-0.131,0.486-0.259,0.972-0.385,1.459C605.225,92.632,604.858,94.134,604.518,95.616z M798.179,184.248l-8.11-8.111l-16.093,2.35
	c9.45-4.65,18.558-12.59,27.324-23.821l0.026-0.033l0.025-0.034c2.203-2.925,4.279-5.876,6.229-8.85l-4.178,24.418l10.354,10.353
	C808.95,181.45,803.758,182.693,798.179,184.248z M358.079,39.362c0.14-1.168,0.282-2.338,0.426-3.511l0.79-6.452l-10.84-10.841
	l-48.223,8.429l-6.223-6.223l-54.304,8.91l-0.638,3.295c-1.521,7.854-3.177,15.693-4.968,23.515
	c-0.678-2.88-1.524-5.692-2.538-8.435c-2.547-6.89-5.863-12.378-9.95-16.464L210.77,20.744c-5.957-5.957-13.55-8.936-22.779-8.936
	c-17.162,0-33.186,9.742-48.07,29.227c-0.261,0.341-0.52,0.683-0.777,1.025c-1.277-1.779-2.638-3.391-4.084-4.837l-10.84-10.84
	c-6.271-6.271-14.128-9.406-23.573-9.406c-16.462,0-31.496,8.957-45.1,26.872C44.878,57.898,37.469,73.654,33.32,91.118
	c-1.854,7.801-2.781,15.275-2.781,22.42v0.028l0.022,1.801l-0.011,1.216v0.021c0,9.59,1.886,18.775,5.659,27.554
	c2.505,5.829,5.588,10.574,9.249,14.235l10.84,10.841c6.179,6.179,14.005,9.268,23.476,9.268c13.911,0,27.399-7.042,40.462-21.127
	c1.497,2.298,3.135,4.337,4.915,6.117l10.84,10.841c2.456,2.456,5.181,4.418,8.176,5.886l-28.863,4.208l-1.067,6.444l-6.27-6.27
	c-0.736-0.736-1.563-1.414-2.482-2.035c-3.987-2.694-9.6-4.041-16.84-4.041c-9.795,0-22.278,2.226-37.451,6.678l-2.878,0.844
	l-14.613,84.141c-1.852,10.017-2.894,16.416-3.125,19.198L30,296.315l10.841,10.841l31.75-8.981l0.399-3.166
	c0.194-1.54,0.396-3.084,0.606-4.632l2.407,6.163l10.841,10.841l11.055-9.955l9.727,9.727l7.175-1.862
	c12.862-3.339,24.274-5.851,34.236-7.538l10.558,10.558l36.702-5.588l4.741,4.741l30.295-6.937l5.718,5.718l6.389-0.841
	c17.507-2.303,33.529-10.003,48.065-23.099c1.973-1.778,3.848-3.599,5.624-5.462l-3.398,19.629l10.841,10.84l20.885-5.815
	l-0.313,1.798l10.84,10.841l32.809-9.817l0.324-3.209c0.012-0.12,0.024-0.24,0.036-0.361l6.208,6.208l31.784-8.781l0.342-3.269
	c0.21-2.01,0.439-4.051,0.689-6.124c0.587,0.724,1.198,1.404,1.835,2.041l10.841,10.841c4.682,4.681,10.719,7.022,18.112,7.022
	c16.853,0,31.226-9.203,43.12-27.61c3.829-5.925,7.138-12.631,9.929-20.118c2.853-7.652,4.279-14.674,4.279-21.066v-0.051
	l-0.157-7.423l-10.728-10.728l9.105-9.933l-0.994-2.745c-1.951-5.386-4.522-9.675-7.713-12.866l-10.841-10.84
	c-4.638-4.638-10.585-6.957-17.843-6.957c-10.196,0-19.852,4.353-28.968,13.059l0.302-1.162l-10.84-10.84l-32.274,6.015
	l-5.888-5.888l-26.096,5.256l-4.457-4.457l37.537-10.408l0.369-3.227c0.81-7.069,1.768-14.336,2.875-21.8
	c2.461,5.483,5.441,9.975,8.944,13.477l10.841,10.841c6.191,6.191,14.009,9.286,23.453,9.286c14.252,0,28.059-7.391,41.421-22.175
	l1.742-1.928l-8.942-34.413l-10.841-10.841l-6.003,7.956c-6.192,8.206-11.659,12.356-16.401,12.45
	c-0.125-0.991-0.188-2.049-0.188-3.175c0-2.651,0.376-5.803,1.128-9.454c1.526-7.414,5.087-15.655,10.683-24.723
	c6.085-9.864,11.552-14.795,16.399-14.795c2.349,0,4.571,1.048,6.668,3.144l3.564,3.564l26.796-29.331l-1.246-2.865
	c-2.634-6.058-5.837-10.974-9.611-14.747l-10.841-10.841c-6.234-6.234-14.022-9.351-23.367-9.351
	c-15.436,0-29.563,7.771-42.382,23.317c0.282-1.093,0.566-2.19,0.854-3.289l1.907-7.321l-10.841-10.841l-43.16,7.932L358.079,39.362
	z M724.081,55.703c-0.646-2.616-1.431-5.175-2.355-7.677c-2.546-6.89-5.863-12.378-9.949-16.465L700.935,20.72
	c-5.957-5.957-13.55-8.935-22.779-8.935c-17.104,0-33.099,9.742-47.983,29.227c-2.448,3.204-4.743,6.47-6.884,9.798
	c0.001-0.137,0.002-0.275,0.002-0.413c0-6.261-1.863-11.255-5.589-14.981l-10.841-10.84c-0.733-0.734-1.539-1.418-2.417-2.054
	c-4.888-3.537-11.973-5.305-21.253-5.306h-1.023c-2.466,0-4.428,0.065-5.888,0.195c-5.878,0.522-13.741,1.993-23.589,4.413
	c-10.902,2.678-18.195,4.317-21.877,4.917l-3.55,0.578l-4.132,32.367c-6.235,45.39-11.593,79.727-16.074,103.012l-0.994,5.162
	l10.841,10.841l5.229,0.541c1.859,0.192,4.477,0.288,7.855,0.288c7.757,0,15.057-0.736,21.899-2.207
	c-8.115,3.426-15.837,9.941-23.166,19.544c-8.941,11.714-15.205,24.431-18.791,38.149c-2.149,8.219-3.223,15.897-3.223,23.033
	c0,7.123,1.083,13.785,3.248,19.986l0.026,0.073l0.028,0.073c1.996,5.174,4.559,9.325,7.688,12.455l10.841,10.841
	c4.791,4.791,10.911,7.187,18.358,7.187c12.411,0,23.957-6.407,34.638-19.22c-0.003,0.042-0.005,0.081-0.006,0.118l-0.277,6.648
	l10.841,10.841l31.49-8.907l0.376-3.197c0.175-1.489,0.36-2.985,0.554-4.487l2.355,6.066l10.841,10.841l11.283-10.159l9.013,9.014
	l6.389-0.841c17.508-2.304,33.529-10.004,48.065-23.099c2.134-1.924,4.153-3.896,6.056-5.919l-3.314,19.919l10.841,10.841
	l7.175-1.854c16.139-4.172,29.957-7.052,41.452-8.64l10.423,10.422l31.49-8.907l0.376-3.197c0.175-1.489,0.36-2.985,0.554-4.487
	l2.355,6.066l10.841,10.841l14.655-13.195l6.835,6.835l3.631,2.219c5.358,3.274,10.985,4.912,16.88,4.912
	c6.257,0,12.534-1.858,18.831-5.575c11.333-6.689,20.109-14.92,26.323-24.692c4.999-7.862,7.498-15.177,7.498-21.947
	c0-2.202-0.284-4.411-0.852-6.627c-0.73-2.854-2.004-5.189-3.82-7.005l-7.948-7.948l13.252-5.126l0.306-2.932
	c0.543-5.212,0.814-9.087,0.814-11.625c0-7.466-1.246-13.234-3.737-17.302c-0.721-1.177-1.527-2.211-2.418-3.102l-10.841-10.841
	c-2.776-2.776-6.378-4.164-10.806-4.164c-0.464,0-0.937,0.016-1.416,0.049c-9.67,0.664-20.445,7.407-32.324,20.228
	c-0.718-1.543-1.689-2.926-2.912-4.149l-10.841-10.841c-0.708-0.708-1.501-1.363-2.378-1.964c-3.966-2.716-9.577-4.074-16.833-4.074
	c-3.94,0-8.328,0.363-13.164,1.088l34.409-9.684l0.418-3.145c0.319-2.405,0.644-4.801,0.976-7.19l2.56,13.716l10.841,10.841
	l42.913-22.627L890.92,84.257l39.301-35.09L919.38,38.326l-32.323-20.873l-2.752,2.752c-1.78,1.78-3.762,3.709-5.947,5.788
	l-7.209-7.209l-43.249,7.97l-3.243,18.957c-2.369-5.849-5.366-10.587-8.992-14.213l-10.841-10.84
	c-5.915-5.916-13.504-8.873-22.766-8.873c-17.163,0-33.187,9.742-48.071,29.227C730.342,45.784,727.039,50.681,724.081,55.703z"/>
<path fill-rule="evenodd" clip-rule="evenodd" fill="#050509" d="M100.684,16.931c-16.462,0-31.496,8.957-45.101,26.872
	C44.915,57.852,37.506,73.608,33.357,91.072c-1.854,7.801-2.781,15.275-2.781,22.42v0.028l0.022,1.801l-0.011,1.216v0.021
	c0,9.59,1.886,18.774,5.659,27.554c6.733,15.669,17.641,23.504,32.724,23.504c14.252,0,28.059-7.392,41.421-22.176l1.75-1.936
	l-9.084-34.439l-5.974,8.012c-6.176,8.286-11.664,12.429-16.461,12.429c-1.518,0-2.943-0.361-4.276-1.083l-0.13-0.07l-0.134-0.063
	c-4.214-1.959-6.324-6.047-6.328-12.264l0.004-0.483c0.045-2.904,0.421-6.073,1.128-9.508c1.574-7.648,5.103-15.885,10.587-24.712
	c6.133-9.871,11.631-14.807,16.495-14.807c2.349,0,4.571,1.048,6.668,3.144l3.557,3.557L135.086,43.9l-1.248-2.871
	C126.853,24.964,115.801,16.931,100.684,16.931z M775.179,284.609c-0.402,2.616-0.617,4.28-0.647,4.994l-0.277,6.648l31.49-8.907
	l0.376-3.197c0.653-5.549,1.438-11.19,2.357-16.924l11.393,29.344l29.91-26.93l-1.65-3.285
	c-7.498-14.926-12.418-24.974-14.759-30.144c15.097-12.878,22.729-26.094,22.894-39.647v-0.015l0.002-0.247v-0.014
	c0-5.998-2.275-10.554-6.823-13.669c-3.966-2.716-9.577-4.074-16.833-4.074c-9.762,0-22.272,2.226-37.531,6.676l-2.884,0.841
	l-13.708,78.929l1.18-16.737l-25.624,3.746l0.211-1.136l0.007-0.038c0.017-0.103,0.034-0.197,0.048-0.283
	c6.398-1.392,13.724-2.782,21.98-4.169l3.77-0.633l1.867-29.609l-21.628,4.628l0.096-0.504l1.279-4.904
	c5.973-0.977,13.172-1.834,21.596-2.57l4.084-0.357l2.671-36.187l-56.205,8.21l-3.908,23.485
	c-1.162-7.553-4.521-14.226-10.078-20.02c-5.205-5.427-12.73-8.141-22.576-8.141c-8.106,0-17.746,1.832-28.922,5.496l-2.796,0.917
	l-3.084,19.426l-9.783,55.84c-6.084-12.157-10.203-20.579-12.357-25.266c15.135-12.911,22.785-26.118,22.95-39.621v-0.015
	l0.002-0.247v-0.014c0-5.998-2.274-10.554-6.823-13.669c-3.966-2.716-9.577-4.074-16.832-4.074c-9.762,0-22.273,2.226-37.531,6.676
	l-2.885,0.841l-4.301,24.769c-0.36-5.803-1.498-11.308-3.413-16.515c-4.856-13.201-13.431-19.801-25.723-19.801
	c-13.294,0-25.638,7.465-37.034,22.396c-8.941,11.714-15.205,24.431-18.791,38.149c-2.148,8.219-3.223,15.897-3.223,23.033
	c0,7.123,1.083,13.785,3.248,19.986l0.026,0.073l0.028,0.073c5.052,13.094,13.733,19.642,26.047,19.642
	c13.342,0,25.685-7.405,37.028-22.214c6.515-8.506,11.596-17.513,15.242-27.022l-3.754,21.614
	c-1.962,11.297-2.977,17.75-3.044,19.361l-0.277,6.648l31.49-8.907l0.376-3.197c0.653-5.549,1.439-11.19,2.357-16.924l11.393,29.344
	l23.432-21.098l-3.135,19.953l6.388-0.841c17.508-2.304,33.53-10.004,48.064-23.099c10.424-9.392,18.089-19.967,22.995-31.726
	l-9.411,56.567l7.175-1.854c20.691-5.348,37.566-8.574,50.625-9.676L775.179,284.609z M187.991,11.736
	c-17.162,0-33.185,9.743-48.07,29.227c-11.865,15.532-20.029,32.255-24.491,50.17c-2.905,10.904-4.358,21-4.358,30.288
	c0,9.221,1.402,17.893,4.206,26.015l0.032,0.091l0.035,0.089c6.5,16.645,17.545,24.968,33.136,24.968
	c17.009,0,32.993-9.584,47.952-28.75l0.026-0.033l0.025-0.033c11.964-15.89,20.209-32.634,24.734-50.233
	c2.729-10.614,4.094-20.505,4.094-29.672c0-9.537-1.53-18.445-4.591-26.726C214.461,20.203,203.551,11.736,187.991,11.736z
	 M453.857,16.931c-16.573,0-31.637,8.96-45.194,26.879c-10.568,13.97-17.973,29.717-22.216,47.242l-0.014,0.055l-0.012,0.055
	c-1.838,8.455-2.757,15.97-2.757,22.545v0.028l0.02,1.586l-0.011,1.232v0.021c0,9.66,1.889,18.845,5.666,27.553
	c6.791,15.659,17.697,23.489,32.717,23.489c14.252,0,28.059-7.392,41.421-22.176l1.743-1.927l-8.943-34.414l-6.003,7.956
	c-6.263,8.301-11.785,12.451-16.566,12.451c-1.514,0-2.884-0.347-4.112-1.041l-0.178-0.1l-0.185-0.085
	c-4.259-1.952-6.388-6.216-6.388-12.791c0-2.651,0.376-5.802,1.127-9.453c1.527-7.415,5.088-15.656,10.683-24.724
	c6.086-9.864,11.552-14.795,16.399-14.795c2.349,0,4.572,1.048,6.668,3.144l3.565,3.565l26.795-29.332l-1.246-2.865
	C479.85,24.964,468.858,16.931,453.857,16.931z M827.896,26.7l-24.544,143.47l39.655-11.16l0.418-3.145
	c1.499-11.296,3.138-22.407,4.917-33.335l9.459,50.702l42.914-22.628l-20.64-77.243l39.301-35.09l-32.323-20.873l-2.752,2.752
	c-4.677,4.678-10.752,10.388-18.225,17.13c0.946-3.746,1.935-7.446,2.966-11.1l2.103-7.45L827.896,26.7z M272.729,218.18
	c1.437,0.219,2.509,0.657,3.213,1.314c0.951,0.886,1.427,2.462,1.431,4.729l-0.006,0.493l0.008,0.555
	c-0.011,4.799-2.512,11.175-7.505,19.128c-1.141,1.818-2.33,3.584-3.566,5.297C268.104,239.237,270.245,228.732,272.729,218.18z
	 M74.207,215.871c1.459-0.446,2.723-0.75,3.792-0.911c-0.914,1.611-2.586,3.566-5.015,5.864l0.197-0.814l0.002-0.009
	C73.566,218.39,73.908,217.013,74.207,215.871z M399.252,263.904c0.511,5.297,1.624,10.217,3.337,14.76
	c4.813,12.767,13.325,19.151,25.534,19.151c16.854,0,31.228-9.203,43.12-27.61c3.829-5.925,7.139-12.631,9.929-20.118
	c2.853-7.652,4.279-14.674,4.279-21.066v-0.051l-0.157-7.423l-45.738,9.686c0.503-0.9,1.023-1.787,1.563-2.661
	c4.854-7.337,9.575-11.005,14.161-11.005c1.583,0,2.7,0.525,3.353,1.577l3.351,5.4l21.686-23.658l-0.994-2.745
	c-4.786-13.215-13.305-19.823-25.556-19.823c-13.069,0-25.251,7.153-36.547,21.457c-5.562,7.044-10.041,14.513-13.438,22.409
	c2.477-11.229,5.332-23.051,8.566-35.467l1.913-7.342l-35.198,6.561l-3.787,22.017c-0.062-3.3-0.093-6.666-0.093-10.098
	c0-5.52,0.11-9.492,0.331-11.916l0.585-6.436l-33.265,6.7l1.78-6.833l-35.108,6.567l-3.85,22.243
	c-1.103-7.761-4.457-14.539-10.061-20.333c-5.24-5.418-12.79-8.127-22.649-8.127c-8.106,0-17.747,1.832-28.923,5.496l-3.104,1.018
	l-0.204,3.26c-0.033,0.531-0.524,3.662-1.472,9.394l-11.793,67.682c0.274-32.008,2.45-59.809,6.527-83.401l1.152-6.664
	l-52.801,8.603l-0.782,3.054c-6.622,25.869-15.003,52.679-25.143,80.431l1.505-20.394l-25.669,3.753
	c0.071-0.465,0.152-0.948,0.243-1.45c6.41-1.396,13.752-2.789,22.028-4.179l3.77-0.634l1.868-29.609l-21.629,4.628l0.101-0.527
	l1.221-4.885c5.939-0.969,13.155-1.824,21.649-2.566l4.084-0.357l2.672-36.185l-56.296,8.208l-12.936,78.154
	c-6.512-12.998-10.827-21.799-12.946-26.405c15.089-12.872,22.744-26.077,22.964-39.613v-0.02l0.003-0.322v-0.019
	c0-5.981-2.302-10.526-6.904-13.636c-3.987-2.694-9.6-4.041-16.84-4.041c-9.795,0-22.278,2.226-37.451,6.678l-2.878,0.844
	l-14.613,84.141c-1.852,10.017-2.893,16.416-3.125,19.198L30,296.284l31.75-8.981l0.399-3.166c0.704-5.581,1.51-11.218,2.419-16.908
	l11.435,29.28l24.378-21.95l-3.596,21.722l7.175-1.862c20.117-5.222,36.687-8.423,49.71-9.602c-0.622,1.614-1.248,3.23-1.881,4.85
	l-3.035,7.772l40.786-6.209l2.515-10.277l-1.858,15.639l37.158-8.509l-1.145,7.29l6.389-0.841
	c17.508-2.303,33.529-10.003,48.065-23.099c10.297-9.277,17.901-19.709,22.814-31.295l-9.747,56.302l32.807-9.134l0.368-3.226
	c3.008-26.408,8.781-56.485,17.317-90.23l-19.079,109.414l32.808-9.817l0.324-3.209c0.425-4.213,0.943-8.521,1.556-12.921
	l3.235,9.204l0.029,0.074c0.68,1.749,1.155,3.035,1.424,3.858v5.632l31.785-8.781l0.341-3.269
	C397.314,277.64,398.182,270.929,399.252,263.904z M438.482,265.176c2.95,0,5.918-1.531,8.903-4.591
	c0.57-0.585,1.115-1.213,1.634-1.884c-3.467,0.782-6.44,1.511-8.919,2.187l-7.116,1.941c0.064,0.085,0.13,0.169,0.198,0.252
	C434.329,264.477,436.095,265.176,438.482,265.176z M880.893,257.442c-1.884,0.094-5.207,0.613-9.969,1.557
	c-3.087,0.612-5.691,1.064-7.812,1.357c1.749,0.909,3.544,1.364,5.386,1.364c1.231,0,2.3-0.152,3.207-0.454l0.175-0.059l0.18-0.044
	c2.314-0.579,4.727-1.492,7.237-2.74C879.924,258.07,880.456,257.743,880.893,257.442z M884.539,221.622
	c-1.586,0.45-3.403,1.817-5.45,4.101c-1.042,1.164-1.712,2.192-2.009,3.083c0.161,0.006,0.335,0.01,0.523,0.01
	c0.763,0,2.397-0.161,4.904-0.483l1.155-0.148c0.318-0.074,0.635-0.146,0.95-0.215v-4.761
	C884.612,222.572,884.588,222.044,884.539,221.622z M915.463,215.436c0.543-5.212,0.815-9.087,0.815-11.625
	c0-7.467-1.246-13.234-3.737-17.302c-2.967-4.845-7.375-7.267-13.224-7.267c-0.465,0-0.937,0.017-1.416,0.05
	c-10.507,0.721-22.318,8.618-35.433,23.692c-13.065,14.545-20.176,27.537-21.333,38.977c-0.085,0.835-0.127,1.647-0.127,2.435
	c0,5.797,2.19,10.274,6.57,13.434c1.92,1.384,4.376,2.262,7.37,2.634l-0.404,0.848c-2.412,5.066-5.309,11.369-8.69,18.908
	l-4.491,9.937l3.63,2.218c5.359,3.275,10.986,4.913,16.88,4.913c6.257,0,12.535-1.859,18.832-5.575
	c11.334-6.689,20.108-14.92,26.322-24.693c4.999-7.861,7.498-15.177,7.498-21.946c0-2.202-0.283-4.411-0.851-6.628
	c-2.01-7.846-8.121-11.77-18.335-11.77c-0.578,0-1.164,0.012-1.757,0.037l21.576-8.346L915.463,215.436z M432.547,262.224
	l6.621-30.306c-2.904,5.325-5.177,11.089-6.821,17.294c-0.533,2.42-0.896,4.985-1.091,7.695
	C431.276,259.056,431.706,260.828,432.547,262.224z M625.032,215.828c1.484-0.454,2.766-0.761,3.847-0.92
	c-0.853,1.589-2.527,3.537-5.023,5.844C624.269,218.882,624.661,217.24,625.032,215.828z M693.641,218.18
	c1.437,0.219,2.509,0.657,3.213,1.314c0.951,0.886,1.427,2.462,1.431,4.729l-0.006,0.493l0.008,0.551
	c-0.011,4.802-2.512,11.179-7.505,19.132c-1.141,1.818-2.33,3.584-3.566,5.297C689.016,239.237,691.157,228.732,693.641,218.18z
	 M818.09,215.826c1.513-0.457,2.803-0.766,3.87-0.926c-0.936,1.693-2.627,3.644-5.072,5.852
	C817.253,219.138,817.653,217.496,818.09,215.826z M560.689,219.003c1.794,0,2.977,2.035,3.551,6.104
	c0.361,2.557,0.541,5.053,0.541,7.489c0,3.917-0.468,7.723-1.404,11.418c-1.407,5.554-3.566,10.183-6.477,13.888
	c-3.395,4.321-6.892,6.482-10.491,6.482c-2.225,0-3.986-0.722-5.283-2.166c-1.15-1.567-1.726-3.765-1.726-6.595
	c0-2.449,0.358-5.054,1.073-7.816c1.445-5.582,4.255-11.666,8.429-18.253C553.36,222.52,557.289,219.003,560.689,219.003z
	 M337.375,158.526l-2.008,11.601l40.162-11.136l0.37-3.227c4.312-37.64,12.827-80.871,25.544-129.694l1.907-7.321l-43.159,7.932
	l-20.072,115.985c-0.043-3.182-0.108-5.858-0.195-8.028c0.275-33.657,2.832-70.231,7.673-109.722l0.791-6.452l-52.52,9.18
	l-3.814,13.984l1.889-20.957l-54.305,8.909L239,32.875c-8.473,43.747-21.123,87.005-37.95,129.775l-3.002,7.629l49.874-6.687
	l10.949-41.726l-6.247,56.046l30.407-4.164l11.509-42.628l-2.952,35.541L337.375,158.526z M565.44,63.232
	c2.212-0.563,4.131-0.882,5.757-0.955c-1.977,3.574-4.608,6.935-7.893,10.083L565.44,63.232z M671.546,67.956
	c3.196,0,5.288,3.195,6.276,9.585c0.484,3.13,0.726,6.291,0.726,9.484c0,5.364-0.68,10.767-2.04,16.207
	c-1.962,7.846-4.871,14.183-8.727,19.012c-4.913,6.152-9.995,9.228-15.246,9.228c-3.719,0-6.493-1.148-8.323-3.443
	c-1.81-2.27-2.716-5.503-2.716-9.699c0-2.847,0.564-6.48,1.691-10.899c2.109-8.27,5.913-16.469,11.411-24.598l0.057-0.083
	l0.053-0.086C660.76,72.859,666.372,67.956,671.546,67.956z M775.354,67.956c3.286,0,5.406,3.188,6.361,9.563
	c0.481,3.211,0.721,6.425,0.721,9.641c0,5.402-0.675,10.753-2.027,16.051c-1.98,7.765-4.924,14.115-8.832,19.05
	c-4.864,6.141-9.942,9.212-15.234,9.212c-3.55,0-6.331-1.157-8.341-3.47c-1.74-2.316-2.61-5.54-2.61-9.672
	c0-3.076,0.534-6.709,1.603-10.899c2.06-8.076,5.87-16.284,11.43-24.625l0.047-0.07l0.044-0.072
	C764.568,72.859,770.181,67.956,775.354,67.956z M555.275,113.619c5.75-1.211,9.948-1.817,12.594-1.817
	c0.564,0,1.047,0.017,1.448,0.051c-0.524,1.397-1.977,2.907-4.359,4.528c-2.68,1.823-6.351,3.613-11.014,5.371L555.275,113.619z
	 M181.354,67.956c3.255,0,5.376,3.195,6.364,9.585c0.492,3.18,0.738,6.378,0.738,9.593c0,5.368-0.682,10.727-2.047,16.076
	c-1.995,7.825-4.935,14.17-8.82,19.034c-4.913,6.152-9.966,9.228-15.158,9.228c-3.719,0-6.493-1.148-8.323-3.443
	c-1.81-2.27-2.716-5.503-2.716-9.699c0-3.354,0.551-6.938,1.651-10.754l0.032-0.111l0.027-0.113
	c1.855-7.823,5.629-16.005,11.323-24.546l0.039-0.059l0.038-0.06C170.64,72.867,176.257,67.956,181.354,67.956z M705.77,110.513
	c-0.421,3.79-0.631,7.427-0.631,10.908c0,9.107,1.367,17.762,4.102,25.966l0.042,0.127l0.05,0.125
	c6.592,16.63,17.664,24.945,33.214,24.945c16.951,0,32.906-9.584,47.865-28.75l0.026-0.033l0.025-0.033
	c12.052-16.008,20.326-32.752,24.821-50.233c2.671-10.387,4.007-20.278,4.007-29.672c0-9.96-1.533-18.875-4.599-26.747
	c-6.091-16.92-16.969-25.38-32.634-25.38c-17.163,0-33.187,9.743-48.071,29.227c-8.018,10.497-14.375,21.597-19.07,33.302
	c0.373-3.602,0.559-7.07,0.559-10.402c0-9.537-1.53-18.445-4.591-26.726c-6.26-16.934-17.169-25.401-32.729-25.401
	c-17.104,0-33.099,9.743-47.983,29.227c-11.697,15.311-19.89,32.033-24.578,50.166c-0.654,2.529-1.234,5-1.741,7.414
	c-1.908-7.133-6.885-11.562-14.931-13.286c15.685-15.032,23.527-30.281,23.527-45.749c0-7.494-2.669-13.172-8.006-17.034
	c-4.888-3.537-11.973-5.306-21.253-5.306h-1.023c-2.466,0-4.428,0.065-5.888,0.194c-5.878,0.523-13.741,1.994-23.589,4.413
	c-10.902,2.679-18.195,4.318-21.877,4.917l-3.55,0.578l-4.132,32.368c-6.235,45.39-11.593,79.727-16.074,103.011l-0.994,5.163
	l5.229,0.541c1.859,0.192,4.477,0.288,7.855,0.288c17.001,0,31.804-3.534,44.409-10.603c10.137-5.685,18.933-12.499,26.387-20.442
	c5.096-5.43,8.861-10.898,11.293-16.404c-0.001,0.078-0.001,0.155-0.001,0.229c0,9.221,1.402,17.893,4.206,26.015l0.032,0.091
	l0.035,0.089c6.5,16.645,17.545,24.968,33.136,24.968c17.009,0,32.993-9.584,47.952-28.75l0.026-0.033l0.025-0.033
	C694.665,133.121,701.039,122.036,705.77,110.513z"/>
<path fill-rule="evenodd" clip-rule="evenodd" fill="#FEBD11" d="M100.632,21.744L100.632,21.744
	c-14.76,0-28.656,8.28-41.256,24.912C49.08,60.264,42.024,75.528,37.992,92.16c-1.8,8.064-2.808,15.768-2.592,23.112
	c-0.216,9.936,1.656,18.792,5.256,26.928c5.76,13.68,15.408,20.592,28.296,20.592c12.672,0,25.488-6.912,37.872-20.592
	l-5.904-22.248c-7.2,9.648-13.824,14.328-20.304,14.328c-2.304,0-4.464-0.504-6.624-1.656c-6.192-2.88-9.288-8.568-9.072-17.136
	c0-3.168,0.432-6.696,1.224-10.44c1.656-8.136,5.544-16.992,11.232-26.28c7.056-11.304,13.968-17.064,20.592-17.064
	c3.672,0,7.128,1.656,10.08,4.536l21.312-23.328C123.24,28.8,113.52,21.744,100.632,21.744z M551.064,109.512L551.064,109.512
	c7.344-1.656,13.032-2.664,16.776-2.664c4.32,0,6.48,1.08,6.48,3.456c0.288,6.984-8.712,13.032-26.424,18.504
	C549.192,120.6,550.272,114.336,551.064,109.512z M561.504,59.328L561.504,59.328c4.536-1.44,7.992-1.944,10.512-1.944
	c3.312,0,4.968,0.936,4.968,3.168c-0.288,0.936-0.72,2.376-1.44,3.816c-4.032,7.344-10.512,13.968-19.512,19.656l2.52-12.384
	C559.56,67.464,560.496,63.432,561.504,59.328z M531.624,31.464L531.624,31.464c-1.008,6.912-2.232,16.632-3.672,28.8
	c-5.976,43.344-11.232,77.832-16.128,103.32c2.52,0.216,4.896,0.216,7.344,0.216c15.696,0,29.664-3.168,42.048-9.936
	c10.008-5.76,18.288-12.24,25.2-19.584c9.144-9.72,13.392-19.224,13.32-28.512c0.072-1.729,0-3.816-0.432-5.544
	c-1.944-8.064-9.504-11.664-22.32-10.872c20.52-16.632,30.744-33.192,30.672-49.824c0.072-11.664-7.92-17.568-24.48-17.568
	c-2.016,0-4.248,0-6.48,0.216c-5.688,0.504-13.464,1.944-22.824,4.248C542.928,29.088,535.368,30.816,531.624,31.464z
	 M671.592,63.072L671.592,63.072c5.976,0,9.648,4.536,11.016,13.68c1.44,9,1.008,18.288-1.368,27.576
	c-2.016,8.208-5.112,15.192-9.648,20.88c-5.904,7.344-12.096,11.016-19.008,11.016c-5.184,0-9.216-1.728-12.096-5.256
	c-2.592-3.384-3.744-7.632-3.744-12.672c0-3.528,0.576-7.56,1.8-12.096c2.088-8.496,6.048-17.208,12.096-26.136
	C657.552,68.832,664.608,63.072,671.592,63.072z M678.144,16.56L678.144,16.56c-15.48,0-30.312,9.216-44.136,27.36
	c-11.376,14.832-19.296,30.816-23.76,48.384c-2.808,10.512-4.176,20.232-4.176,29.088s1.368,17.136,3.96,24.48
	c5.76,14.76,15.192,21.888,28.656,21.888c15.408,0,30.096-8.928,44.136-26.856c11.16-14.904,19.368-30.96,23.976-48.6
	c2.448-9.936,3.888-19.584,3.888-28.44c0-9.144-1.44-17.424-4.32-25.056C700.968,23.904,691.464,16.56,678.144,16.56z
	 M775.416,63.072L775.416,63.072c5.976,0,9.72,4.536,11.088,13.68c1.368,9,1.008,18.288-1.368,27.576
	c-2.088,8.208-5.184,15.192-9.72,20.88c-5.76,7.344-12.096,11.016-19.008,11.016c-5.112,0-9.144-1.728-12.096-5.256
	c-2.664-3.384-3.672-7.632-3.672-12.672c0-3.528,0.504-7.56,1.728-12.096c2.088-8.496,6.12-17.208,12.096-26.136
	C761.376,68.832,768.504,63.072,775.416,63.072z M782.04,16.56L782.04,16.56c-15.48,0-30.384,9.216-44.208,27.36
	c-11.376,14.832-19.296,30.816-23.76,48.384c-2.736,10.512-4.104,20.232-4.104,29.088s1.368,17.136,3.816,24.48
	c5.904,14.76,15.264,21.888,28.8,21.888c15.408,0,30.024-8.928,44.064-26.856c11.16-14.904,19.44-30.96,23.976-48.6
	c2.52-9.936,3.888-19.584,3.888-28.44c0-9.144-1.368-17.424-4.32-25.056C804.864,23.904,795.36,16.56,782.04,16.56z M832.08,30.816
	L809.4,163.44l29.232-8.208c2.664-19.8,5.832-39.744,9.576-59.76l13.176,70.488l33.696-17.856l-20.448-76.392l36.864-32.832
	l-23.76-15.336c-8.856,8.856-19.008,18-29.808,27.432c1.44-6.48,3.456-15.264,6.48-26.064L832.08,30.816z M181.344,63.072
	L181.344,63.072c5.976,0,9.72,4.536,11.16,13.68c1.368,9,0.936,18.288-1.44,27.576c-2.088,8.208-5.112,15.192-9.72,20.88
	c-5.76,7.344-12.024,11.016-18.936,11.016c-5.184,0-9.216-1.728-12.096-5.256c-2.592-3.384-3.744-7.632-3.744-12.672
	c0-3.528,0.504-7.56,1.8-12.096c2.016-8.496,6.048-17.208,12.024-26.136C167.448,68.832,174.432,63.072,181.344,63.072z
	 M187.968,16.56L187.968,16.56c-15.48,0-30.312,9.216-44.208,27.36c-11.304,14.832-19.296,30.816-23.688,48.384
	c-2.736,10.512-4.176,20.232-4.176,29.088s1.44,17.136,3.96,24.48c5.76,14.76,15.264,21.888,28.656,21.888
	c15.408,0,30.096-8.928,44.136-26.856c11.232-14.904,19.368-30.96,23.904-48.6c2.52-9.936,3.96-19.584,3.96-28.44
	c0-9.144-1.44-17.424-4.32-25.056C210.792,23.904,201.288,16.56,187.968,16.56z M205.608,164.448l38.52-5.184l26.928-102.528
	l-12.888,115.56l21.096-2.88l24.552-90.864l-6.84,82.296l38.448-6.84c0-6.48,0-12.816-0.216-19.296
	c0.216-32.832,2.664-69.624,7.704-110.376l-43.128,7.56l-17.352,63.576l6.264-69.048L243.84,33.84
	C235.2,78.12,222.456,121.68,205.608,164.448z M364.44,30.816L341.472,163.44l29.736-8.208c4.176-36.72,12.6-80.28,25.632-130.32
	L364.44,30.816z M453.864,21.744L453.864,21.744c-14.904,0-28.728,8.28-41.328,24.912c-10.224,13.608-17.352,28.872-21.384,45.504
	c-1.728,8.064-2.808,15.768-2.592,23.112c-0.216,9.936,1.656,18.792,5.256,26.928c5.832,13.68,15.408,20.592,28.296,20.592
	c12.744,0,25.488-6.912,37.8-20.592l-5.76-22.248c-7.272,9.648-13.896,14.328-20.448,14.328c-2.16,0-4.464-0.504-6.479-1.656
	c-6.264-2.88-9.288-8.568-9.145-17.136c0-3.168,0.432-6.696,1.224-10.44c1.656-8.136,5.616-16.992,11.304-26.28
	c6.984-11.304,13.896-17.064,20.448-17.064c3.815,0,7.2,1.656,10.08,4.536l21.312-23.328
	C476.328,28.8,466.608,21.744,453.864,21.744z"/>
<path fill-rule="evenodd" clip-rule="evenodd" fill="#FEBD11" d="M70.248,212.112L70.248,212.112c3.96-1.368,7.128-2.088,9.36-2.088
	c2.664,0,3.96,1.08,4.104,3.168c-0.144,0.72-0.216,1.584-0.648,2.376c-1.08,2.808-3.672,5.976-7.272,9.288
	c-3.168,2.592-6.48,4.896-9.936,6.48l1.944-9.576C68.592,218.592,69.312,215.28,70.248,212.112z M52.536,189.792l-14.112,81.216
	c-1.872,10.44-2.88,16.632-3.024,18.72l21.96-6.192c1.296-10.44,3.096-21.744,5.472-34.056l15.12,38.808
	c9.792-8.856,17.064-15.264,21.96-19.8c-9.432-18.864-15.048-30.24-16.344-33.768c15.912-12.744,23.76-25.488,23.976-38.232
	c0.144-8.784-6.264-13.176-18.864-13.176C79.248,183.312,67.152,185.472,52.536,189.792z M139.296,211.104L139.296,211.104
	c7.632-1.44,16.128-2.376,25.128-3.168l1.944-26.136l-46.872,6.84L102.72,289.728c20.592-5.328,37.944-8.64,51.336-9.792
	L156,253.872l-26.352,3.816l1.08-5.544c0.216-2.016,0.576-3.744,1.008-5.688c6.12-1.368,14.4-3.024,25.344-4.896l1.224-19.44
	l-22.536,4.824l1.512-7.776C137.856,216.504,138.576,213.768,139.296,211.104z M200.496,253.872l-7.128,1.296l13.248-54.648h0.216
	L200.496,253.872z M156.288,291.456l29.304-4.536l3.096-12.528l9.216-1.728l-2.088,17.712l30.168-6.912
	c-0.432-38.88,1.728-72.72,6.624-101.088l-43.056,6.984C181.128,222.192,170.04,256.176,156.288,291.456z M268.968,213.192
	L268.968,213.192c9-0.432,13.392,3.384,13.176,11.448c0.216,6.192-2.592,13.536-8.208,22.248
	c-4.32,7.056-9.432,13.248-14.976,18.576C261.264,249.048,264.504,231.552,268.968,213.192z M248.88,189.792L248.88,189.792
	c-0.072,1.44-1.08,6.912-2.664,16.56l-11.376,65.016c-1.44,10.152-2.52,16.272-2.88,18.36c16.632-2.16,31.824-9.432,45.504-21.888
	c13.752-12.24,22.248-26.712,25.92-43.2c0.792-3.744,1.224-7.056,1.224-10.584c0-9-3.096-16.632-9.144-22.824
	c-4.248-4.536-10.728-6.696-19.152-6.696C268.68,184.536,259.536,186.264,248.88,189.792z M317.064,190.08l-17.28,99.648
	l22.32-6.192c3.168-27.648,9.504-60.336,19.296-98.064L317.064,190.08z M349.68,190.44l-18.432,105.984l22.248-6.696
	c1.008-10.368,2.592-21.096,4.752-32.328l1.944,6.48l7.416,20.952c1.224,3.168,1.728,4.824,1.728,4.896l22.536-6.192
	c2.88-27.648,9.36-60.336,19.152-98.064l-24.408,4.608l-9.504,55.008c-0.936-3.528-1.656-7.992-2.232-13.536
	c-0.72-9.576-1.152-20.88-1.152-33.696c0-5.328,0.072-9.432,0.36-12.384L349.68,190.44z M428.088,292.968L428.088,292.968
	c15.048,0,28.152-8.352,39.096-25.344c3.744-5.832,6.768-12.24,9.504-19.224c2.808-7.776,4.176-14.832,3.888-20.952l-37.224,7.92
	l-4.536,20.808c5.76-1.584,12.24-2.952,19.152-4.32c-1.728,4.896-4.104,8.928-7.128,12.024c-3.888,3.96-7.992,6.048-12.384,6.048
	c-4.032,0-6.912-1.296-9-3.816c-1.944-2.376-3.023-5.544-3.023-9.36c0.216-2.592,0.576-5.544,1.224-8.712
	c2.16-7.992,5.256-15.408,9.432-22.032c5.76-8.784,11.88-13.248,18.216-13.248c3.312,0,5.832,1.296,7.416,3.816l15.408-16.776
	c-4.032-11.16-11.016-16.632-21.024-16.632c-11.52,0-22.392,6.552-32.76,19.584c-8.424,10.728-14.256,22.536-17.496,35.424
	c-1.872,7.632-2.88,14.328-3.096,20.664c0.216,6.624,1.296,12.816,3.312,18.144C411.096,287.64,418.224,292.968,428.088,292.968z
	 M560.784,214.272L560.784,214.272c4.392,0,7.344,3.384,8.28,10.224c1.008,6.84,0.792,13.752-0.936,20.736
	c-1.584,6.12-4.032,11.376-7.344,15.696c-4.392,5.544-9.072,8.352-14.328,8.352c-3.815,0-6.84-1.44-9-3.96
	c-2.016-2.664-2.808-5.76-2.808-9.648c0-2.592,0.36-5.616,1.224-9c1.656-6.408,4.752-12.96,9-19.656
	C550.128,218.592,555.6,214.272,560.784,214.272z M565.752,179.28L565.752,179.28c-11.736,0-22.896,6.912-33.192,20.52
	c-8.568,11.232-14.472,23.184-18,36.432c-2.016,7.848-3.024,15.12-3.024,21.816c0,6.768,1.008,12.888,2.952,18.36
	c4.32,11.16,11.52,16.56,21.6,16.56c11.52,0,22.68-6.696,33.192-20.304c8.424-11.088,14.544-23.184,17.928-36.432
	c1.944-7.56,3.024-14.688,3.024-21.384c0-6.912-1.08-13.104-3.312-18.936C582.96,184.824,575.832,179.28,565.752,179.28z
	 M621.12,212.112L621.12,212.112c3.96-1.368,7.128-2.088,9.36-2.088c2.664,0,3.96,1.08,4.248,3.168
	c-0.288,0.72-0.36,1.584-0.792,2.376c-1.008,2.808-3.6,5.976-7.272,9.288c-3.168,2.592-6.479,4.896-9.936,6.48l2.016-9.576
	C619.464,218.592,620.184,215.28,621.12,212.112z M603.408,189.792l-14.112,81.216c-1.8,10.44-2.88,16.632-2.952,18.72l21.96-6.192
	c1.224-10.44,3.024-21.744,5.472-34.056l15.048,38.808c9.792-8.856,17.064-15.264,22.032-19.8
	c-9.504-18.864-15.048-30.24-16.416-33.768c15.912-12.744,23.832-25.488,23.976-38.232c0.144-8.784-6.192-13.176-18.792-13.176
	C630.264,183.312,618.168,185.472,603.408,189.792z M689.88,213.192L689.88,213.192c9.072-0.432,13.392,3.384,13.248,11.448
	c0.144,6.192-2.736,13.536-8.208,22.248c-4.392,7.056-9.504,13.248-15.048,18.576C682.176,249.048,685.416,231.552,689.88,213.192z
	 M669.864,189.792L669.864,189.792c-0.216,1.44-1.08,6.912-2.664,16.56l-11.376,65.016c-1.584,10.152-2.52,16.272-2.88,18.36
	c16.632-2.16,31.752-9.432,45.432-21.888c13.752-12.24,22.248-26.712,25.92-43.2c0.792-3.744,1.224-7.056,1.224-10.584
	c0-9-3.096-16.632-9.144-22.824c-4.248-4.536-10.728-6.696-19.152-6.696C689.664,184.536,680.52,186.264,669.864,189.792z
	 M757.776,211.104L757.776,211.104c7.632-1.44,16.056-2.376,25.056-3.168l1.944-26.136l-46.8,6.84L721.2,289.728
	c20.664-5.328,37.872-8.64,51.408-9.792l1.8-26.064l-26.352,3.816l1.08-5.544c0.36-2.016,0.576-3.744,1.008-5.688
	c6.12-1.368,14.4-3.024,25.344-4.896l1.224-19.44l-22.536,4.824l1.512-7.776C756.264,216.504,756.984,213.768,757.776,211.104z
	 M814.152,212.112L814.152,212.112c4.032-1.368,7.056-2.088,9.36-2.088c2.592,0,4.032,1.08,4.176,3.168
	c-0.144,0.72-0.36,1.584-0.72,2.376c-1.008,2.808-3.672,5.976-7.344,9.288c-3.024,2.592-6.408,4.896-9.864,6.48l2.016-9.576
	C812.424,218.592,813.216,215.28,814.152,212.112z M796.44,189.792l-14.112,81.216c-1.872,10.44-2.88,16.632-2.952,18.72
	l21.96-6.192c1.224-10.44,2.952-21.744,5.4-34.056l15.12,38.808c9.792-8.856,17.064-15.264,21.96-19.8
	c-9.432-18.864-14.976-30.24-16.272-33.768c15.912-12.744,23.688-25.488,23.904-38.232c0.072-8.784-6.192-13.176-18.864-13.176
	C823.224,183.312,811.128,185.472,796.44,189.792z M910.632,214.92L910.632,214.92c0.504-4.176,0.72-7.776,0.792-11.088
	c-0.072-13.68-4.32-20.232-13.176-19.728c-9.072,0.72-19.944,7.992-32.184,22.104c-12.456,13.824-19.08,25.848-20.16,36.216
	c-0.504,5.184,1.008,8.928,4.464,11.52c1.872,1.296,4.464,1.944,8.064,1.944c2.448,0,6.336-0.648,11.52-1.728
	c4.968-0.936,8.928-1.656,11.448-1.656c3.888,0,5.688,1.368,5.616,3.672c0.072,2.232-1.729,4.32-5.544,6.408
	c-2.592,1.296-5.472,2.448-8.28,3.168c-1.584,0.504-3.24,0.72-4.752,0.72c-3.384,0-6.552-1.08-9.576-3.096
	c-5.256,11.016-8.856,19.368-11.376,24.912c4.752,2.88,9.504,4.176,14.4,4.176c5.328,0,10.872-1.656,16.344-4.896
	c10.512-6.192,18.864-14.04,24.696-23.112c4.392-7.056,6.695-13.32,6.768-19.368c0-2.016-0.288-3.744-0.72-5.472
	c-1.368-5.472-5.832-8.136-13.608-8.136c-3.168,0-6.84,0.432-10.872,1.44c-2.808,0.36-5.184,0.648-6.912,0.648
	c-3.384,0-5.184-0.936-5.472-2.664c-0.432-2.736,0.72-5.544,3.312-8.424c3.456-3.888,6.768-5.904,10.152-5.904
	c2.592,0,3.816,2.232,3.816,6.624l10.512-4.032C904.08,217.584,907.608,216.144,910.632,214.92z"/>
</svg>
